<?xml version="1.0" standalone="no"?>
<!DOCTYPE svg PUBLIC "-//W3C//DTD SVG 20010904//EN"
 "http://www.w3.org/TR/2001/REC-SVG-20010904/DTD/svg10.dtd">
<svg version="1.0" xmlns="http://www.w3.org/2000/svg"
 width="1080.000000pt" height="1080.000000pt" viewBox="0 0 1080.000000 1080.000000"
 preserveAspectRatio="xMidYMid meet">

<g transform="translate(0.000000,1080.000000) scale(0.100000,-0.100000)"
fill="#000000" stroke="none">
<path d="M8199 10316 c-3 -3 -23 -8 -45 -11 -53 -6 -152 -17 -189 -19 -41 -4
-75 -15 -75 -27 0 -5 -8 -9 -18 -9 -10 0 -22 -3 -26 -7 -7 -8 -1 -7 -156 -23
-96 -10 -130 -18 -205 -51 -84 -36 -168 -58 -240 -62 -16 -1 -34 -7 -38 -14
-12 -19 -96 -53 -157 -64 -63 -12 -203 -64 -242 -91 -14 -10 -30 -18 -36 -18
-5 0 -27 -13 -48 -28 -21 -15 -69 -45 -106 -65 -69 -39 -203 -134 -272 -195
-83 -73 -266 -262 -323 -335 -32 -41 -104 -123 -158 -181 -55 -59 -113 -131
-129 -159 -16 -29 -33 -53 -38 -55 -4 -2 -8 -8 -8 -14 0 -12 -26 -39 -33 -32
-2 3 -12 -10 -21 -28 -10 -18 -27 -49 -38 -68 -85 -142 -124 -212 -160 -283
-23 -45 -61 -118 -85 -162 -50 -90 -84 -180 -76 -204 4 -14 4 -14 -6 -1 -9 13
-14 11 -37 -12 l-27 -27 -19 35 c-10 19 -16 39 -13 45 4 5 -12 37 -34 72 -23
34 -41 69 -41 79 0 33 -124 247 -143 248 -10 0 -20 10 -77 80 -25 30 -49 60
-55 66 -5 6 -25 27 -43 48 -18 20 -36 35 -41 32 -5 -3 -29 12 -53 34 -31 27
-48 36 -55 29 -7 -7 -19 1 -39 26 -20 27 -29 33 -33 22 -4 -10 -12 -12 -26 -6
-19 7 -19 8 -1 8 15 1 8 11 -29 44 -27 23 -68 61 -91 85 -23 23 -47 42 -53 42
-6 0 -19 4 -29 9 -9 5 -37 17 -62 27 -25 10 -53 24 -62 32 -10 8 -18 11 -18 6
0 -5 -4 -4 -8 2 -19 30 -303 144 -362 146 -8 0 -20 4 -25 9 -6 4 -29 10 -52
12 -24 3 -64 12 -90 21 -27 8 -88 20 -138 26 -49 6 -121 15 -160 20 -38 5 -99
14 -135 20 -36 7 -108 16 -160 21 -52 4 -142 13 -200 18 -58 6 -118 9 -135 6
-106 -18 -336 -31 -362 -20 -15 6 -14 9 12 20 29 13 27 13 -42 14 -53 1 -81
-4 -105 -17 -31 -18 -152 -67 -266 -111 -30 -11 -60 -17 -67 -15 -7 3 -36 -6
-65 -21 -57 -29 -68 -28 -50 5 6 12 9 24 6 27 -6 7 -106 -48 -106 -59 0 -4 -4
-8 -10 -8 -10 0 -45 -27 -86 -66 -12 -12 -37 -32 -56 -45 -35 -25 -63 -47 -82
-65 -6 -5 -45 -39 -86 -74 -41 -36 -80 -69 -86 -75 -6 -5 -26 -24 -45 -40 -53
-47 -99 -110 -101 -140 -1 -14 -17 -43 -35 -63 -18 -20 -28 -39 -23 -42 4 -3
-14 -30 -42 -60 -103 -113 -147 -187 -205 -345 -8 -22 -18 -45 -23 -50 -26
-31 -130 -306 -130 -343 0 -10 -14 -29 -30 -44 -17 -14 -33 -40 -36 -56 -5
-25 -17 -36 -68 -61 -160 -82 -224 -119 -258 -154 -21 -21 -38 -32 -39 -25 0
7 -5 0 -10 -17 -5 -16 -10 -73 -11 -125 -1 -80 2 -104 21 -147 14 -32 30 -53
40 -54 9 0 11 -3 4 -5 -13 -6 -6 -34 9 -34 5 0 6 5 3 10 -3 6 -4 10 -1 10 3 0
10 -10 17 -21 8 -15 8 -19 0 -15 -6 4 -11 2 -11 -4 0 -7 9 -14 20 -17 11 -3
20 -13 20 -23 0 -10 7 -20 15 -24 8 -3 15 -9 14 -13 -3 -20 2 -34 11 -28 6 3
13 -2 17 -12 4 -10 12 -23 17 -30 28 -32 36 -43 36 -48 0 -4 20 -31 44 -60 50
-62 78 -140 102 -285 8 -52 24 -115 34 -140 10 -25 21 -61 24 -80 4 -19 15
-64 26 -100 10 -36 23 -84 29 -107 6 -22 22 -52 36 -65 14 -12 27 -37 31 -55
3 -17 12 -34 20 -37 8 -3 14 -11 14 -18 0 -8 12 -27 28 -44 36 -41 65 -82 86
-122 9 -18 21 -30 27 -27 5 4 8 3 7 -2 -1 -4 15 -44 36 -88 21 -44 41 -89 46
-100 23 -58 59 -119 88 -153 19 -20 42 -54 53 -74 11 -21 24 -38 29 -38 5 0
11 -8 14 -17 3 -10 16 -30 30 -44 29 -32 58 -91 61 -127 1 -15 9 -39 17 -52 9
-14 18 -37 22 -52 4 -16 11 -28 16 -28 6 0 10 -5 10 -11 0 -6 15 -28 32 -49
48 -53 68 -79 68 -86 0 -2 4 -10 10 -17 5 -7 41 -55 79 -107 39 -52 82 -107
96 -122 14 -15 25 -29 25 -32 0 -3 8 -14 18 -25 9 -10 25 -29 35 -42 48 -64
112 -139 120 -139 4 0 5 -4 2 -10 -8 -13 31 -49 119 -107 39 -27 76 -52 82
-58 6 -5 53 -48 105 -95 82 -75 177 -168 227 -223 10 -10 17 -24 17 -30 0 -7
10 -13 23 -15 13 -2 26 -10 29 -17 5 -14 45 -40 133 -87 25 -13 56 -34 70 -47
73 -67 409 -264 472 -276 12 -3 23 -7 26 -10 3 -3 14 2 23 11 16 14 23 15 49
4 16 -7 30 -16 30 -21 0 -5 5 -9 11 -9 5 0 7 5 3 12 -5 8 -2 9 10 5 10 -4 20
-7 22 -7 2 0 4 -7 4 -15 0 -8 8 -15 18 -15 14 0 15 2 2 10 -10 7 -11 10 -2 10
7 0 15 -7 18 -15 3 -8 15 -17 25 -20 16 -5 18 -10 8 -21 -9 -11 -9 -14 1 -14
24 0 105 -58 122 -87 12 -21 38 -37 100 -62 46 -18 107 -43 136 -57 29 -13 57
-24 62 -24 10 0 165 -58 225 -85 17 -7 50 -16 74 -19 87 -13 161 -38 159 -55
-4 -23 59 -50 117 -51 58 0 125 -17 125 -30 0 -6 9 -10 19 -10 11 0 21 -4 23
-10 5 -17 169 -68 268 -84 61 -10 97 -21 103 -31 4 -8 15 -15 24 -15 20 0 128
-25 198 -45 28 -8 113 -19 190 -25 77 -6 149 -14 159 -17 14 -4 27 2 40 19 36
43 93 79 148 94 40 10 126 14 348 14 162 0 300 4 305 8 6 4 21 20 33 36 22 29
44 45 91 66 13 6 37 22 53 35 16 14 35 25 41 25 10 0 48 27 206 147 13 10 34
28 47 41 22 23 22 23 17 2 -7 -26 -12 -29 184 101 61 41 151 99 199 129 96 60
366 256 413 300 9 8 32 26 51 40 19 13 41 30 49 38 8 7 26 21 40 30 40 26 147
113 241 196 47 42 93 76 103 76 9 0 17 5 17 10 0 6 5 10 10 10 21 0 149 99
255 198 39 36 113 100 165 142 100 82 215 191 265 253 17 21 67 77 113 125 46
48 95 102 110 120 42 50 118 129 134 138 8 5 59 61 113 124 53 63 112 128 131
143 19 16 53 61 76 100 36 63 80 127 113 163 14 16 73 88 117 143 20 25 52 70
70 100 18 29 53 78 76 108 46 58 57 78 143 263 29 63 58 120 65 126 7 6 18 22
24 35 6 13 20 40 30 59 11 19 24 52 30 73 6 20 15 37 20 37 12 0 68 121 80
175 6 25 15 53 20 63 15 28 37 103 49 167 29 167 54 482 42 538 -7 32 -6 265
1 457 2 58 0 139 -5 180 -4 41 -10 163 -12 270 -4 155 -9 211 -25 275 -12 44
-34 130 -50 190 -15 61 -47 159 -70 219 -53 140 -220 482 -254 521 -14 17 -26
33 -26 36 0 16 -153 172 -207 212 -24 17 -43 34 -43 39 0 4 -6 8 -14 8 -8 0
-18 9 -21 20 -3 11 -12 20 -19 20 -7 0 -26 13 -42 30 -16 16 -33 30 -39 30 -5
0 -25 14 -44 30 -18 17 -39 30 -44 30 -6 0 -78 34 -159 75 -81 41 -157 75
-168 75 -11 0 -39 9 -62 19 -24 11 -59 23 -79 26 -21 3 -42 12 -49 20 -7 8
-21 15 -31 15 -10 0 -21 5 -24 10 -3 6 -18 10 -33 10 -15 0 -38 7 -50 16 -13
9 -52 17 -95 20 -39 3 -82 6 -93 8 -12 3 -48 7 -80 11 -33 4 -64 12 -71 17 -6
5 -38 11 -70 13 -32 2 -87 6 -123 10 -36 3 -68 4 -71 1z m-121 -251 c-8 -8
-259 -56 -272 -52 -16 6 61 26 162 41 101 16 117 18 110 11z m359 -67 c15 -6
55 -14 88 -18 117 -14 240 -41 251 -55 6 -8 14 -12 17 -8 4 3 7 1 7 -5 0 -7
10 -12 23 -12 12 0 59 -18 105 -40 46 -22 88 -40 95 -40 7 0 39 -14 72 -31 33
-17 83 -43 110 -56 28 -14 59 -34 70 -43 18 -17 85 -63 220 -154 44 -30 99
-84 160 -158 11 -14 37 -58 57 -99 117 -242 147 -313 168 -394 12 -49 27 -99
33 -110 6 -11 11 -23 12 -27 0 -4 6 -13 13 -19 6 -7 12 -21 12 -30 0 -10 6
-24 13 -31 7 -7 23 -47 36 -88 13 -41 27 -85 32 -98 5 -13 9 -49 9 -80 0 -31
7 -100 15 -152 20 -127 38 -514 32 -675 -6 -147 -23 -385 -31 -430 -3 -16 -10
-61 -17 -100 -22 -135 -67 -269 -175 -525 -77 -181 -157 -337 -223 -435 -138
-205 -186 -273 -212 -303 -16 -18 -29 -36 -29 -40 0 -4 -14 -23 -31 -42 -18
-19 -68 -80 -112 -135 -45 -55 -122 -147 -172 -205 -50 -58 -109 -132 -131
-165 -21 -33 -42 -61 -46 -63 -5 -2 -8 -10 -8 -18 0 -8 -6 -13 -12 -11 -7 1
-12 -3 -11 -10 2 -7 -4 -10 -12 -7 -18 7 -263 -236 -332 -331 -29 -38 -67 -84
-85 -100 -98 -90 -168 -146 -213 -170 -27 -16 -75 -51 -106 -79 -30 -28 -81
-69 -112 -91 -108 -76 -378 -292 -510 -408 -27 -23 -73 -57 -103 -74 -56 -34
-266 -192 -272 -205 -5 -10 -111 -91 -164 -124 -24 -15 -49 -35 -56 -45 -7
-10 -52 -38 -100 -62 -88 -44 -334 -195 -340 -209 -2 -4 -29 -22 -60 -39 -104
-58 -182 -111 -182 -124 0 -16 -138 -98 -219 -130 -33 -13 -85 -37 -115 -54
-58 -34 -106 -39 -181 -20 -57 14 -48 32 11 23 28 -4 44 -3 44 4 0 14 -30 24
-123 38 -31 4 -39 2 -34 -8 5 -15 -23 -21 -61 -13 -14 4 -20 10 -16 18 5 9 4
9 -7 0 -17 -16 -56 -17 -65 -1 -5 7 -2 9 7 6 8 -3 23 -2 34 3 14 5 3 8 -35 9
-144 3 -259 13 -304 26 -27 8 -69 14 -92 14 -25 0 -49 6 -58 16 -22 22 -20 24
14 20 17 -2 30 0 30 4 0 10 -37 20 -72 20 -16 0 -28 5 -28 10 0 6 -8 10 -18
10 -10 0 -55 16 -99 35 -65 28 -96 35 -164 38 -51 3 -108 13 -144 26 -33 12
-98 28 -145 37 -136 24 -280 79 -280 107 0 8 -3 8 -9 -2 -10 -16 -31 -6 -31
15 0 16 -17 19 -22 4 -2 -6 -16 -3 -33 6 -16 9 -43 18 -60 21 -16 3 -39 10
-50 16 -11 6 -23 10 -27 9 -13 -3 -9 16 4 20 20 7 -278 168 -311 168 -6 0 -57
22 -114 49 -56 27 -120 54 -142 61 -22 7 -53 18 -70 25 -16 7 -39 16 -49 19
-10 4 -16 9 -13 13 11 10 -14 33 -34 33 -11 0 -27 4 -37 9 -9 5 -56 29 -105
53 -48 23 -87 46 -87 50 0 5 -6 8 -13 8 -7 0 -36 16 -66 35 -29 19 -55 35 -58
35 -2 0 -22 18 -43 40 -21 22 -43 40 -49 40 -6 0 -11 7 -11 15 0 9 -7 18 -15
21 -8 4 -15 14 -15 24 0 11 -10 22 -22 26 -13 4 -32 16 -43 28 -11 12 -33 30
-49 40 -66 42 -187 146 -281 242 -348 353 -485 508 -485 545 0 11 -4 19 -10
19 -5 0 -10 7 -10 15 0 8 -13 29 -28 47 -45 52 -183 256 -224 332 -21 39 -52
88 -68 110 -58 79 -103 152 -178 291 -41 77 -92 168 -113 202 -22 34 -39 71
-39 81 0 10 -4 22 -8 27 -5 6 -17 33 -27 60 -27 74 -64 153 -73 157 -5 1 -22
37 -39 78 -57 139 -86 285 -61 301 11 7 11 9 0 9 -7 0 -10 5 -7 10 3 6 3 16
-2 23 -4 6 -8 21 -10 32 -5 50 -16 90 -30 111 -19 29 -30 167 -15 197 23 46
40 178 41 322 2 149 5 182 21 220 23 56 31 86 40 153 14 100 26 152 61 260 16
51 29 98 28 105 -3 25 1 37 14 37 8 0 22 16 33 35 10 19 21 35 25 35 9 0 91
107 117 153 26 45 147 207 194 259 18 20 58 68 88 106 30 37 79 88 108 113 29
24 61 51 70 59 9 9 40 27 67 40 28 13 72 37 98 52 40 23 153 68 171 68 3 0 2
-8 -1 -17 -5 -13 -3 -15 13 -9 10 4 33 10 49 13 17 2 42 9 56 14 39 15 104 20
324 23 126 2 239 9 305 20 103 17 162 15 188 -6 8 -7 42 -8 105 -2 50 5 144 9
208 9 116 0 147 -7 243 -57 23 -12 126 -42 212 -63 34 -8 115 -39 180 -69 66
-30 148 -62 182 -72 35 -10 75 -28 88 -41 13 -12 24 -19 24 -16 0 4 8 -2 19
-13 24 -24 47 -43 91 -73 19 -13 40 -29 45 -35 6 -6 30 -27 55 -46 25 -19 47
-37 50 -40 26 -28 136 -114 177 -139 29 -18 54 -40 57 -49 3 -9 20 -33 36 -52
17 -19 42 -60 56 -90 14 -30 42 -77 63 -105 20 -27 59 -86 86 -130 59 -95 111
-165 135 -182 10 -7 21 -25 25 -40 3 -15 15 -39 25 -53 10 -15 46 -79 79 -143
l61 -116 19 37 c11 20 21 35 21 32 5 -16 11 -58 11 -72 0 -10 4 -18 8 -18 20
0 26 14 146 355 66 187 84 231 110 275 12 19 34 64 49 100 43 99 188 376 241
460 12 19 41 67 64 105 113 191 164 257 300 398 151 155 254 242 421 357 36
25 87 62 113 83 27 20 57 37 67 37 10 0 88 35 172 78 212 109 384 175 563 218
183 44 229 53 305 59 41 4 111 13 155 20 44 8 91 16 105 19 47 8 298 -4 327
-16z m-892 -37 c6 -11 -11 -17 -78 -26 -26 -3 -73 -15 -104 -26 -31 -10 -58
-17 -60 -15 -11 11 109 56 177 66 25 4 48 8 52 9 4 0 9 -3 13 -8z m-2057
-1928 c-16 -39 -32 -54 -18 -19 12 33 19 46 25 46 3 0 -1 -12 -7 -27z m-4856
-433 c19 0 20 -4 13 -65 -9 -92 -19 -121 -38 -117 -34 6 -47 -39 -54 -181 -5
-123 -4 -137 10 -137 10 0 17 -6 17 -14 0 -7 3 -34 6 -60 5 -31 3 -46 -5 -46
-6 0 -11 17 -11 39 0 24 -5 41 -14 44 -11 4 -15 -10 -21 -59 l-7 -65 -62 93
c-104 155 -148 254 -160 361 -3 27 60 88 144 139 107 65 133 78 148 73 8 -3
23 -5 34 -5z m35 -82 c-3 -8 -6 -5 -6 6 -1 11 2 17 5 13 3 -3 4 -12 1 -19z
m-398 -293 c0 -5 -8 6 -19 25 -11 19 -19 42 -19 50 0 16 37 -58 38 -75z m366
-323 c-12 -12 -19 11 -21 69 -4 93 10 104 19 15 4 -43 5 -81 2 -84z"/>
<path d="M2340 8383 c-30 -16 -66 -35 -80 -42 -14 -8 -32 -17 -40 -21 -8 -4
-32 -36 -53 -71 l-38 -64 5 -94 c4 -82 9 -103 40 -165 21 -43 55 -91 88 -123
46 -44 64 -54 130 -73 55 -15 89 -19 115 -14 21 5 45 7 54 6 18 -3 154 150
185 209 15 27 19 56 19 134 0 120 -13 152 -94 235 -67 67 -131 99 -214 106
-55 5 -68 2 -117 -23z m243 -640 c-7 -2 -19 -2 -25 0 -7 3 -2 5 12 5 14 0 19
-2 13 -5z"/>
<path d="M7805 7880 c-113 -9 -185 -28 -322 -85 -236 -99 -376 -196 -438 -301
-30 -51 -31 -74 -5 -97 19 -16 21 -15 54 13 32 28 34 29 28 8 -6 -25 -10 -28
80 56 29 27 85 70 125 96 84 56 320 152 414 169 75 14 231 19 271 8 40 -10 47
-48 17 -92 -13 -19 -27 -35 -30 -35 -3 0 -21 -15 -40 -33 -65 -63 -164 -134
-238 -171 -87 -43 -200 -115 -220 -140 -13 -15 -13 -19 -1 -26 12 -7 11 -12
-5 -30 l-19 -21 29 7 c28 7 29 6 15 -11 -14 -16 -13 -17 8 -11 16 6 22 3 22
-8 0 -34 48 -30 118 12 104 61 132 74 207 93 79 21 143 24 197 9 48 -14 66
-32 74 -77 9 -50 -23 -108 -98 -178 -77 -71 -125 -98 -228 -128 -138 -40 -143
-43 -135 -74 4 -17 2 -29 -7 -34 -10 -7 -10 -9 2 -9 16 0 50 -34 50 -50 0 -5
42 -9 103 -7 98 2 105 1 175 -32 68 -32 75 -38 99 -89 16 -34 26 -73 27 -106
1 -68 -30 -111 -130 -176 -90 -59 -188 -81 -264 -61 -85 23 -238 108 -315 176
-79 70 -93 81 -113 93 -24 13 -30 4 -9 -17 10 -10 7 -11 -14 -6 -34 8 -64 -27
-48 -57 14 -27 96 -109 149 -149 25 -19 55 -43 68 -54 45 -38 157 -94 190 -95
22 0 32 -5 32 -15 0 -13 17 -15 107 -14 86 1 119 6 171 25 141 54 219 106 269
182 20 29 33 55 30 59 -4 3 1 19 9 35 12 24 13 38 3 86 -6 31 -12 71 -13 88
-2 39 -60 118 -139 190 l-62 55 33 27 c96 77 186 185 180 215 -1 7 3 22 10 33
11 21 5 81 -14 143 -5 18 -4 22 5 16 24 -15 -7 31 -57 84 -27 28 -57 51 -68
52 -40 1 -86 9 -101 18 -13 7 -4 20 45 71 34 35 59 67 56 71 -3 5 0 9 7 9 9 0
9 4 -1 15 -6 8 -8 20 -4 26 5 9 10 7 15 -7 6 -15 8 -12 8 13 1 17 5 33 11 35
6 2 6 19 -1 46 -5 24 -7 47 -4 53 4 5 -1 19 -9 31 -11 15 -16 18 -16 8 0 -8
-8 0 -17 18 -9 18 -24 37 -34 42 -24 13 -184 18 -294 10z m290 -30 c3 -5 -1
-10 -9 -10 -9 0 -16 5 -16 10 0 6 4 10 9 10 6 0 13 -4 16 -10z m19 -274 c-9
-15 -19 -25 -21 -22 -3 2 3 16 13 30 9 15 19 25 21 22 3 -2 -3 -16 -13 -30z
m133 -498 c-3 -8 -6 -5 -6 6 -1 11 2 17 5 13 3 -3 4 -12 1 -19z m-47 -48 c-6
-11 -13 -20 -16 -20 -2 0 0 9 6 20 6 11 13 20 16 20 2 0 0 -9 -6 -20z m-85
-100 c-3 -5 -20 -19 -38 -30 l-32 -22 33 31 c32 30 49 40 37 21z m56 -627 c-5
-10 -24 -27 -43 -37 -32 -19 -32 -18 7 17 46 42 49 43 36 20z"/>
<path d="M4125 3260 c3 -5 14 -10 23 -10 15 0 15 2 2 10 -20 13 -33 13 -25 0z"/>
<path d="M5558 2883 c6 -2 18 -2 25 0 6 3 1 5 -13 5 -14 0 -19 -2 -12 -5z"/>
<path d="M2708 9453 c6 -2 18 -2 25 0 6 3 1 5 -13 5 -14 0 -19 -2 -12 -5z"/>
<path d="M2069 2662 c-45 -24 -59 -37 -84 -87 l-30 -59 -5 -635 c-6 -695 -6
-689 -66 -754 -44 -47 -79 -59 -163 -55 -124 5 -157 42 -206 231 -28 109 -51
161 -87 194 -90 84 -273 38 -317 -80 -18 -46 -13 -176 9 -262 60 -235 191
-373 410 -432 101 -27 321 -24 425 6 208 58 341 189 405 396 33 109 42 306 38
870 -5 554 -5 558 -61 622 -67 77 -173 95 -268 45z"/>
<path d="M3317 2680 c-70 -21 -137 -108 -137 -177 0 -76 25 -122 334 -598
l221 -340 5 -335 c6 -378 10 -400 75 -465 107 -107 278 -76 347 62 23 47 23
55 26 387 l3 338 258 397 c282 433 299 460 307 525 27 196 -230 294 -358 135
-19 -24 -122 -185 -228 -357 -151 -243 -196 -310 -205 -300 -7 7 -93 146 -193
309 -213 346 -240 385 -296 410 -43 19 -111 23 -159 9z"/>
<path d="M5715 2651 c-76 -20 -132 -69 -157 -138 -10 -31 -13 -193 -13 -818 0
-722 1 -783 18 -826 20 -54 57 -91 112 -116 35 -16 79 -18 385 -21 606 -6 767
23 920 164 114 107 170 237 170 399 0 197 -85 340 -254 431 l-57 31 49 38
c194 147 235 421 97 630 -21 30 -58 73 -83 96 -55 48 -166 103 -242 119 -64
14 -896 24 -945 11z m737 -356 c139 -24 183 -73 176 -194 -5 -84 -39 -140
-107 -173 -44 -22 -59 -23 -293 -26 l-248 -3 0 205 0 206 198 0 c122 -1 226
-6 274 -15z m28 -745 c92 -15 169 -56 196 -104 30 -53 38 -115 24 -184 -10
-46 -20 -65 -54 -97 -71 -69 -112 -77 -408 -83 l-258 -4 0 241 0 241 218 0
c119 0 246 -5 282 -10z"/>
<path d="M8152 2641 c-66 -23 -106 -61 -129 -120 -17 -43 -18 -105 -18 -841 0
-743 1 -798 18 -842 56 -145 242 -183 352 -73 65 65 68 81 72 444 l5 324 104
-5 c197 -9 242 -50 484 -453 193 -320 228 -359 338 -372 102 -12 205 52 232
144 12 38 10 50 -10 110 -55 168 -204 405 -342 547 -48 49 -87 90 -85 91 1 1
33 14 71 29 172 68 280 181 322 339 18 67 18 227 -1 296 -50 188 -192 324
-396 377 -54 14 -133 18 -514 21 -420 3 -454 2 -503 -16z m858 -357 c175 -80
171 -329 -7 -388 -66 -22 -218 -35 -400 -36 l-153 0 0 226 0 226 258 -4 c233
-3 261 -5 302 -24z"/>
</g>
</svg>
